{
  "accessors": [
    {
      "bufferView": 2,
      "componentType": 5126,
      "count": 65532,
      "max": [
        4.4164628982543945,
        4.834146022796631,
        0.1720447689294815
      ],
      "min": [
        -4.4164628982543945,
        -4.045495510101318,
        -0.18007691204547882
      ],
      "type": "VEC3"
    },
    {
      "bufferView": 2,
      "byteOffset": 786384,
      "componentType": 5126,
      "count": 65532,
      "max": [
        0.9976599216461182,
        0.9995973110198975,
        0.999995231628418
      ],
      "min": [
        -0.9997571110725403,
        -0.9986342191696167,
        -0.9999975562095642
      ],
      "type": "VEC3"
    },
    {
      "bufferView": 1,
      "componentType": 5126,
      "count": 65532,
      "max": [
        0.8365378975868225,
        0.8934736847877502
      ],
      "min": [
        0.17068108916282654,
        0.08640687167644501
      ],
      "type": "VEC2"
    },
    {
      "bufferView": 0,
      "componentType": 5125,
      "count": 232326,
      "type": "SCALAR"
    },
    {
      "bufferView": 2,
      "byteOffset": 1572768,
      "componentType": 5126,
      "count": 65532,
      "max": [
        4.416467666625977,
        4.938752174377441,
        0.1820191890001297
      ],
      "min": [
        -3.2180116176605225,
        -4.082587242126465,
        -0.1820191890001297
      ],
      "type": "VEC3"
    },
    {
      "bufferView": 2,
      "byteOffset": 2359152,
      "componentType": 5126,
      "count": 65532,
      "max": [
        0.9999740123748779,
        0.9996575713157654,
        0.9999919533729553
      ],
      "min": [
        -0.999837338924408,
        -0.9995454549789429,
        -0.9999974966049194
      ],
      "type": "VEC3"
    },
    {
      "bufferView": 1,
      "byteOffset": 524256,
      "componentType": 5126,
      "count": 65532,
      "max": [
        0.8365378975868225,
        0.8935325741767883
      ],
      "min": [
        0.140055313706398,
        0.08390753716230392
      ],
      "type": "VEC2"
    },
    {
      "bufferView": 0,
      "byteOffset": 929304,
      "componentType": 5125,
      "count": 222009,
      "type": "SCALAR"
    },
    {
      "bufferView": 2,
      "byteOffset": 3145536,
      "componentType": 5126,
      "count": 65532,
      "max": [
        4.4026899337768555,
        3.0572433471679688,
        0.10557675361633301
      ],
      "min": [
        0.11577320098876953,
        -4.082584857940674,
        -0.1057126522064209
      ],
      "type": "VEC3"
    },
    {
      "bufferView": 2,
      "byteOffset": 3931920,
      "componentType": 5126,
      "count": 65532,
      "max": [
        0.9967815279960632,
        0.9975855946540833,
        0.9999905824661255
      ],
      "min": [
        -0.9964460730552673,
        -0.997958242893219,
        -0.9999970197677612
      ],
      "type": "VEC3"
    },
    {
      "bufferView": 1,
      "byteOffset": 1048512,
      "componentType": 5126,
      "count": 65532,
      "max": [
        0.8365378975868225,
        0.8399030566215515
      ],
      "min": [
        0.16862161457538605,
        0.08390700817108154
      ],
      "type": "VEC2"
    },
    {
      "bufferView": 0,
      "byteOffset": 1817340,
      "componentType": 5125,
      "count": 230079,
      "type": "SCALAR"
    },
    {
      "bufferView": 2,
      "byteOffset": 4718304,
      "componentType": 5126,
      "count": 65532,
      "max": [
        3.6795196533203125,
        1.4112887382507324,
        0.10557675361633301
      ],
      "min": [
        0.864264965057373,
        -2.3927388191223145,
        -0.1057126522064209
      ],
      "type": "VEC3"
    },
    {
      "bufferView": 2,
      "byteOffset": 5504688,
      "componentType": 5126,
      "count": 65532,
      "max": [
        0.9967813491821289,
        0.997586190700531,
        0.9999905824661255
      ],
      "min": [
        -0.9964455962181091,
        -0.997958242893219,
        -0.999997079372406
      ],
      "type": "VEC3"
    },
    {
      "bufferView": 1,
      "byteOffset": 1572768,
      "componentType": 5126,
      "count": 65532,
      "max": [
        0.8365378975868225,
        0.8399030566215515
      ],
      "min": [
        0.16862161457538605,
        0.08390700817108154
      ],
      "type": "VEC2"
    },
    {
      "bufferView": 0,
      "byteOffset": 2737656,
      "componentType": 5125,
      "count": 232167,
      "type": "SCALAR"
    },
    {
      "bufferView": 2,
      "byteOffset": 6291072,
      "componentType": 5126,
      "count": 65532,
      "max": [
        3.654006004333496,
        3.0572433471679688,
        0.10557675361633301
      ],
      "min": [
        -4.416467666625977,
        -4.082587242126465,
        -0.1057126522064209
      ],
      "type": "VEC3"
    },
    {
      "bufferView": 2,
      "byteOffset": 7077456,
      "componentType": 5126,
      "count": 65532,
      "max": [
        0.9964460730552673,
        0.9975855946540833,
        0.9999905824661255
      ],
      "min": [
        -0.9967814683914185,
        -0.997958242893219,
        -0.9999970197677612
      ],
      "type": "VEC3"
    },
    {
      "bufferView": 1,
      "byteOffset": 2097024,
      "componentType": 5126,
      "count": 65532,
      "max": [
        0.8365359902381897,
        0.8399030566215515
      ],
      "min": [
        0.16862161457538605,
        0.08390700817108154
      ],
      "type": "VEC2"
    },
    {
      "bufferView": 0,
      "byteOffset": 3666324,
      "componentType": 5125,
      "count": 231732,
      "type": "SCALAR"
    },
    {
      "bufferView": 2,
      "byteOffset": 7863840,
      "componentType": 5126,
      "count": 65532,
      "max": [
        -0.11578798294067383,
        3.0572361946105957,
        0.10557675361633301
      ],
      "min": [
        -3.6795196533203125,
        -2.3927388191223145,
        -0.1057126522064209
      ],
      "type": "VEC3"
    },
    {
      "bufferView": 2,
      "byteOffset": 8650224,
      "componentType": 5126,
      "count": 65532,
      "max": [
        0.9964461326599121,
        0.997586190700531,
        0.9999905824661255
      ],
      "min": [
        -0.9967813491821289,
        -0.9979581832885742,
        -0.9999970197677612
      ],
      "type": "VEC3"
    },
    {
      "bufferView": 1,
      "byteOffset": 2621280,
      "componentType": 5126,
      "count": 65532,
      "max": [
        0.8365359902381897,
        0.8399030566215515
      ],
      "min": [
        0.16862161457538605,
        0.08390700817108154
      ],
      "type": "VEC2"
    },
    {
      "bufferView": 0,
      "byteOffset": 4593252,
      "componentType": 5125,
      "count": 230688,
      "type": "SCALAR"
    },
    {
      "bufferView": 2,
      "byteOffset": 9436608,
      "componentType": 5126,
      "count": 65532,
      "max": [
        3.6748666763305664,
        4.938836097717285,
        0.1820191890001297
      ],
      "min": [
        -4.411815166473389,
        -4.082587242126465,
        -0.1820191890001297
      ],
      "type": "VEC3"
    },
    {
      "bufferView": 2,
      "byteOffset": 10222992,
      "componentType": 5126,
      "count": 65532,
      "max": [
        0.9983217716217041,
        0.9975855946540833,
        0.9999906420707703
      ],
      "min": [
        -0.997429609298706,
        -0.9986340403556824,
        -0.9999970197677612
      ],
      "type": "VEC3"
    },
    {
      "bufferView": 1,
      "byteOffset": 3145536,
      "componentType": 5126,
      "count": 65532,
      "max": [
        0.8365378975868225,
        0.8852720260620117
      ],
      "min": [
        0.16960008442401886,
        0.08390700817108154
      ],
      "type": "VEC2"
    },
    {
      "bufferView": 0,
      "byteOffset": 5516004,
      "componentType": 5125,
      "count": 166539,
      "type": "SCALAR"
    },
    {
      "bufferView": 2,
      "byteOffset": 11009376,
      "componentType": 5126,
      "count": 65532,
      "max": [
        3.6748228073120117,
        3.0532631874084473,
        0.1057126522064209
      ],
      "min": [
        -3.6748671531677246,
        -2.3927388191223145,
        -0.1057126522064209
      ],
      "type": "VEC3"
    },
    {
      "bufferView": 2,
      "byteOffset": 11795760,
      "componentType": 5126,
      "count": 65532,
      "max": [
        0.9976235032081604,
        0.9967893958091736,
        0.9999550580978394
      ],
      "min": [
        -0.9976769685745239,
        -0.9982175827026367,
        -0.999949038028717
      ],
      "type": "VEC3"
    },
    {
      "bufferView": 1,
      "byteOffset": 3669792,
      "componentType": 5126,
      "count": 65532,
      "max": [
        0.8365378975868225,
        0.837628960609436
      ],
      "min": [
        0.16960008442401886,
        0.08390700817108154
      ],
      "type": "VEC2"
    },
    {
      "bufferView": 0,
      "byteOffset": 6182160,
      "componentType": 5125,
      "count": 139842,
      "type": "SCALAR"
    },
    {
      "bufferView": 2,
      "byteOffset": 12582144,
      "componentType": 5126,
      "count": 48394,
      "max": [
        4.4118146896362305,
        4.9228129386901855,
        0.16532474756240845
      ],
      "min": [
        -1.2688010931015015,
        -4.082587242126465,
        -0.16609613597393036
      ],
      "type": "VEC3"
    },
    {
      "bufferView": 2,
      "byteOffset": 13162872,
      "componentType": 5126,
      "count": 48394,
      "max": [
        0.9986740350723267,
        0.9995059967041016,
        0.9999824166297913
      ],
      "min": [
        -0.9987999200820923,
        -0.9990555047988892,
        -0.999995231628418
      ],
      "type": "VEC3"
    },
    {
      "bufferView": 1,
      "byteOffset": 4194048,
      "componentType": 5126,
      "count": 48394,
      "max": [
        0.8345102071762085,
        0.885338544845581
      ],
      "min": [
        0.14039269089698792,
        0.08390700817108154
      ],
      "type": "VEC2"
    },
    {
      "bufferView": 0,
      "byteOffset": 6741528,
      "componentType": 5125,
      "count": 99198,
      "type": "SCALAR"
    }
  ],
  "asset": {
    "extras": {
      "author": "Kurt Schuster (https://sketchfab.com/kurtschuster)",
      "license": "CC-BY-4.0 (http://creativecommons.org/licenses/by/4.0/)",
      "source": "https://sketchfab.com/3d-models/ornament-font-letter-a-be8387ff99c54b1bb4cb071711befe6a",
      "title": "Ornament FONT Letter A"
    },
    "generator": "Sketchfab-12.68.0",
    "version": "2.0"
  },
  "bufferViews": [
    {
      "buffer": 0,
      "byteLength": 7138320,
      "name": "floatBufferViews",
      "target": 34963
    },
    {
      "buffer": 0,
      "byteLength": 4581200,
      "byteOffset": 7138320,
      "byteStride": 8,
      "name": "floatBufferViews",
      "target": 34962
    },
    {
      "buffer": 0,
      "byteLength": 13743600,
      "byteOffset": 11719520,
      "byteStride": 12,
      "name": "floatBufferViews",
      "target": 34962
    }
  ],
  "buffers": [
    {
      "byteLength": 25463120,
      "uri": "scene.bin"
    }
  ],
  "materials": [
    {
      "doubleSided": true,
      "name": "material_0",
      "pbrMetallicRoughness": {
        "metallicFactor": 0.0,
        "roughnessFactor": 0.6
      }
    }
  ],
  "meshes": [
    {
      "name": "Object_0",
      "primitives": [
        {
          "attributes": {
            "NORMAL": 1,
            "POSITION": 0,
            "TEXCOORD_0": 2
          },
          "indices": 3,
          "material": 0,
          "mode": 4
        }
      ]
    },
    {
      "name": "Object_1",
      "primitives": [
        {
          "attributes": {
            "NORMAL": 5,
            "POSITION": 4,
            "TEXCOORD_0": 6
          },
          "indices": 7,
          "material": 0,
          "mode": 4
        }
      ]
    },
    {
      "name": "Object_2",
      "primitives": [
        {
          "attributes": {
            "NORMAL": 9,
            "POSITION": 8,
            "TEXCOORD_0": 10
          },
          "indices": 11,
          "material": 0,
          "mode": 4
        }
      ]
    },
    {
      "name": "Object_3",
      "primitives": [
        {
          "attributes": {
            "NORMAL": 13,
            "POSITION": 12,
            "TEXCOORD_0": 14
          },
          "indices": 15,
          "material": 0,
          "mode": 4
        }
      ]
    },
    {
      "name": "Object_4",
      "primitives": [
        {
          "attributes": {
            "NORMAL": 17,
            "POSITION": 16,
            "TEXCOORD_0": 18
          },
          "indices": 19,
          "material": 0,
          "mode": 4
        }
      ]
    },
    {
      "name": "Object_5",
      "primitives": [
        {
          "attributes": {
            "NORMAL": 21,
            "POSITION": 20,
            "TEXCOORD_0": 22
          },
          "indices": 23,
          "material": 0,
          "mode": 4
        }
      ]
    },
    {
      "name": "Object_6",
      "primitives": [
        {
          "attributes": {
            "NORMAL": 25,
            "POSITION": 24,
            "TEXCOORD_0": 26
          },
          "indices": 27,
          "material": 0,
          "mode": 4
        }
      ]
    },
    {
      "name": "Object_7",
      "primitives": [
        {
          "attributes": {
            "NORMAL": 29,
            "POSITION": 28,
            "TEXCOORD_0": 30
          },
          "indices": 31,
          "material": 0,
          "mode": 4
        }
      ]
    },
    {
      "name": "Object_8",
      "primitives": [
        {
          "attributes": {
            "NORMAL": 33,
            "POSITION": 32,
            "TEXCOORD_0": 34
          },
          "indices": 35,
          "material": 0,
          "mode": 4
        }
      ]
    }
  ],
  "nodes": [
    {
      "children": [
        1
      ],
      "matrix": [
        1.0,
        0.0,
        0.0,
        0.0,
        0.0,
        2.220446049250313e-16,
        -1.0,
        0.0,
        0.0,
        1.0,
        2.220446049250313e-16,
        0.0,
        0.0,
        0.0,
        0.0,
        1.0
      ],
      "name": "Sketchfab_model"
    },
    {
      "children": [
        2,
        3,
        4,
        5,
        6,
        7,
        8,
        9,
        10
      ],
      "name": "Ornament Letter A.obj.cleaner.materialmerger.gles"
    },
    {
      "mesh": 0,
      "name": "Object_2"
    },
    {
      "mesh": 1,
      "name": "Object_3"
    },
    {
      "mesh": 2,
      "name": "Object_4"
    },
    {
      "mesh": 3,
      "name": "Object_5"
    },
    {
      "mesh": 4,
      "name": "Object_6"
    },
    {
      "mesh": 5,
      "name": "Object_7"
    },
    {
      "mesh": 6,
      "name": "Object_8"
    },
    {
      "mesh": 7,
      "name": "Object_9"
    },
    {
      "mesh": 8,
      "name": "Object_10"
    }
  ],
  "scene": 0,
  "scenes": [
    {
      "name": "Sketchfab_Scene",
      "nodes": [
        0
      ]
    }
  ]
}
